<svg width="72" height="72" viewBox="0 0 72 72" fill="none" xmlns="http://www.w3.org/2000/svg">
<g filter="url(#filter0_b_1_331)">
<rect width="72" height="72" rx="36" fill="white"/>
<rect x="0.5" y="0.5" width="71" height="71" rx="35.5" stroke="#3C7098"/>
<path d="M30.95 48.508C30.4637 48.167 30.0327 47.7456 29.6736 47.26C29.2785 46.7588 28.9125 46.233 28.5775 45.6854C27.7914 44.4714 27.1749 43.1445 26.7469 41.7456C26.2328 40.1206 25.9839 38.563 25.9839 37.0396C25.9839 35.3382 26.333 33.853 27.0159 32.605C27.5222 31.6295 28.2665 30.8144 29.1718 30.2438C30.0492 29.6694 31.0573 29.355 32.0899 29.3338C32.4514 29.3338 32.8407 29.3891 33.2538 29.4947C33.5505 29.5833 33.912 29.723 34.3537 29.8969C34.9156 30.1252 35.2247 30.265 35.3295 30.2991C35.6586 30.4258 35.9353 30.4811 36.1527 30.4811C36.3176 30.4811 36.5504 30.4258 36.8148 30.3413C36.9635 30.2861 37.2441 30.1886 37.6456 30.0074C38.0434 29.8546 38.3563 29.7238 38.6052 29.6263C38.9868 29.5077 39.356 29.398 39.6851 29.3428C40.0753 29.2779 40.4712 29.2608 40.8651 29.2916C41.5478 29.3386 42.2201 29.4911 42.8607 29.7441C43.9081 30.1886 44.7552 30.8825 45.3857 31.8688C45.1192 32.042 44.8691 32.2417 44.6388 32.4652C44.1375 32.9337 43.7105 33.4836 43.374 34.0943C42.9341 34.9288 42.7061 35.8688 42.7119 36.8235C42.7281 37.9959 43.0133 39.0286 43.5752 39.9215C43.9883 40.5833 44.5251 41.1493 45.1529 41.5847C45.4744 41.813 45.7511 41.9698 46.0162 42.0755C45.8921 42.4817 45.7595 42.875 45.6031 43.265C45.2482 44.1395 44.8181 44.978 44.3182 45.7699C43.8727 46.4516 43.5235 46.9594 43.2584 47.2974C42.8453 47.8133 42.4475 48.2074 42.046 48.482C41.6043 48.7908 41.0825 48.9557 40.5522 48.9557C40.1931 48.9702 39.834 48.9244 39.4886 48.82C39.1918 48.7144 38.8981 48.5998 38.6091 48.469C38.3086 48.3235 37.9988 48.2005 37.6819 48.101C36.8985 47.8889 36.0772 47.8875 35.2933 48.0969C34.9718 48.1944 34.6628 48.3081 34.3575 48.4479C33.9282 48.638 33.643 48.7656 33.4781 48.82C33.149 48.9216 32.8075 48.985 32.4622 49.0061C31.9281 49.0061 31.4301 48.8452 30.9369 48.5194L30.95 48.508ZM37.9948 28.5083C37.2965 28.8764 36.6298 29.0332 35.9677 28.982C35.8636 28.2792 35.9677 27.5601 36.2444 26.7728C36.48 26.1058 36.828 25.4892 37.2718 24.9528C37.7405 24.3882 38.3091 23.9253 38.9459 23.5903C39.6242 23.2222 40.2709 23.0231 40.889 22.9939C40.9692 23.73 40.889 24.454 40.6324 25.2364C40.3948 25.9281 40.0474 26.5721 39.6049 27.1409C39.1533 27.7063 38.5991 28.171 37.9748 28.5075L37.9948 28.5083Z" fill="black"/>
</g>
<defs>
<filter id="filter0_b_1_331" x="-4" y="-4" width="80" height="80" filterUnits="userSpaceOnUse" color-interpolation-filters="sRGB">
<feFlood flood-opacity="0" result="BackgroundImageFix"/>
<feGaussianBlur in="BackgroundImageFix" stdDeviation="2"/>
<feComposite in2="SourceAlpha" operator="in" result="effect1_backgroundBlur_1_331"/>
<feBlend mode="normal" in="SourceGraphic" in2="effect1_backgroundBlur_1_331" result="shape"/>
</filter>
</defs>
</svg>
