<svg width="24" height="24" viewBox="0 0 24 24" fill="none" xmlns="http://www.w3.org/2000/svg">
<path d="M17.5999 10.1633V9.6C17.5999 6.50721 15.0927 4 11.9999 4C8.90706 4 6.39986 6.50721 6.39986 9.6V10.1633C6.39986 10.8393 6.19976 11.5001 5.82479 12.0626L4.90591 13.4409C4.0666 14.6999 4.70734 16.4111 6.16711 16.8092C9.98587 17.8507 14.0138 17.8507 17.8326 16.8092C19.2924 16.4111 19.9331 14.6999 19.0938 13.4409L18.1749 12.0626C17.8 11.5001 17.5999 10.8393 17.5999 10.1633Z" stroke="black" stroke-width="1.4"/>
<path d="M8.3999 17.5904C8.92392 18.9886 10.3379 19.9904 11.9999 19.9904C13.6619 19.9904 15.0759 18.9886 15.5999 17.5904" stroke="black" stroke-width="1.4" stroke-linecap="round"/>
</svg>
