<svg width="24" height="24" viewBox="0 0 24 24" fill="none" xmlns="http://www.w3.org/2000/svg">
<rect width="24" height="24" rx="12" fill="#22AD75"/>
<g clip-path="url(#clip0_1_4165)">
<path d="M16.2998 8.84625L10.5418 14.6038C10.5031 14.6426 10.4571 14.6735 10.4065 14.6945C10.3558 14.7155 10.3015 14.7264 10.2466 14.7264C10.1918 14.7264 10.1375 14.7155 10.0868 14.6945C10.0361 14.6735 9.99013 14.6426 9.95142 14.6038L7.72476 12.375C7.68604 12.3361 7.64004 12.3053 7.58938 12.2843C7.53872 12.2632 7.4844 12.2524 7.42955 12.2524C7.37469 12.2524 7.32038 12.2632 7.26972 12.2843C7.21906 12.3053 7.17305 12.3361 7.13434 12.375C7.09547 12.4137 7.06464 12.4597 7.04359 12.5104C7.02255 12.561 7.01172 12.6154 7.01172 12.6702C7.01172 12.7251 7.02255 12.7794 7.04359 12.83C7.06464 12.8807 7.09547 12.9267 7.13434 12.9654L9.36184 15.1925C9.59682 15.427 9.91525 15.5588 10.2473 15.5588C10.5793 15.5588 10.8977 15.427 11.1327 15.1925L16.8902 9.43625C16.929 9.39755 16.9598 9.35157 16.9808 9.30095C17.0018 9.25033 17.0126 9.19606 17.0126 9.14125C17.0126 9.08645 17.0018 9.03218 16.9808 8.98156C16.9598 8.93094 16.929 8.88496 16.8902 8.84625C16.8515 8.80739 16.8055 8.77655 16.7548 8.75551C16.7041 8.73446 16.6498 8.72363 16.595 8.72363C16.5401 8.72363 16.4858 8.73446 16.4351 8.75551C16.3845 8.77655 16.3385 8.80739 16.2998 8.84625Z" fill="white"/>
</g>
<defs>
<clipPath id="clip0_1_4165">
<rect width="10" height="10" fill="white" transform="translate(7 7)"/>
</clipPath>
</defs>
</svg>
