<svg width="72" height="72" viewBox="0 0 72 72" fill="none" xmlns="http://www.w3.org/2000/svg">
<g filter="url(#filter0_b_1_325)">
<rect width="72" height="72" rx="36" fill="white"/>
<rect x="0.5" y="0.5" width="71" height="71" rx="35.5" stroke="#3C7098"/>
<path d="M29.7581 38.4656L28.9776 41.537L26.1249 41.6006C25.2724 39.9338 24.7888 38.0266 24.7888 36C24.7888 34.0403 25.2409 32.1922 26.0424 30.5649H26.043L28.5827 31.0558L29.6952 33.7169C29.4624 34.4325 29.3354 35.2007 29.3354 36C29.3355 36.8675 29.4846 37.6987 29.7581 38.4656Z" fill="#FBBB00"/>
<path d="M47.0154 33.7921C47.1442 34.507 47.2113 35.2453 47.2113 35.9999C47.2113 36.846 47.1269 37.6713 46.9662 38.4675C46.4204 41.1765 44.9943 43.5421 43.0189 45.2161L43.0182 45.2155L39.8194 45.0434L39.3666 42.0642C40.6775 41.2538 41.7019 39.9856 42.2415 38.4675H36.2466V33.7921H42.329H47.0154Z" fill="#518EF8"/>
<path d="M43.0182 45.2156L43.0188 45.2162C41.0975 46.8441 38.6569 47.8181 36.0001 47.8181C31.7306 47.8181 28.0186 45.3026 26.125 41.6006L29.7582 38.4656C30.705 41.1292 33.1425 43.0253 36.0001 43.0253C37.2284 43.0253 38.3791 42.6753 39.3665 42.0643L43.0182 45.2156Z" fill="#28B446"/>
<path d="M43.1562 26.9025L39.5243 30.0369C38.5023 29.3636 37.2943 28.9746 36.0001 28.9746C33.0778 28.9746 30.5947 30.9577 29.6954 33.7168L26.0431 30.5649H26.0425C27.9084 26.7727 31.6672 24.1818 36.0001 24.1818C38.7204 24.1818 41.2146 25.2032 43.1562 26.9025Z" fill="#F14336"/>
</g>
<defs>
<filter id="filter0_b_1_325" x="-4" y="-4" width="80" height="80" filterUnits="userSpaceOnUse" color-interpolation-filters="sRGB">
<feFlood flood-opacity="0" result="BackgroundImageFix"/>
<feGaussianBlur in="BackgroundImageFix" stdDeviation="2"/>
<feComposite in2="SourceAlpha" operator="in" result="effect1_backgroundBlur_1_325"/>
<feBlend mode="normal" in="SourceGraphic" in2="effect1_backgroundBlur_1_325" result="shape"/>
</filter>
</defs>
</svg>
