<svg width="24" height="24" viewBox="0 0 24 24" fill="none" xmlns="http://www.w3.org/2000/svg">
<path d="M12 10C14.2091 10 16 8.20914 16 6C16 3.79086 14.2091 2 12 2C9.79086 2 8 3.79086 8 6C8 8.20914 9.79086 10 12 10Z" stroke="white" stroke-opacity="0.5" stroke-width="1.5"/>
<path d="M15 20.6151C14.0907 20.8619 13.0736 21 12 21C8.13401 21 5 19.2091 5 17C5 14.7909 8.13401 13 12 13C15.866 13 19 14.7909 19 17C19 17.3453 18.9234 17.6804 18.7795 18" stroke="white" stroke-opacity="0.5" stroke-width="1.5" stroke-linecap="round"/>
</svg>
