<svg width="20" height="21" viewBox="0 0 20 21" fill="none" xmlns="http://www.w3.org/2000/svg">
<path d="M16.5814 13.8334H6.5814C5.80643 13.8334 5.41893 13.8334 5.10102 13.9185C4.23829 14.1497 3.56442 14.8236 3.33325 15.6863" stroke="#3C7098" stroke-width="1.2"/>
<path d="M6.66675 6.33337H13.3334" stroke="#3C7098" stroke-width="1.2" stroke-linecap="round"/>
<path d="M6.66675 9.25H10.8334" stroke="#3C7098" stroke-width="1.2" stroke-linecap="round"/>
<path d="M16.2501 16.3334H6.66675" stroke="#3C7098" stroke-width="1.2" stroke-linecap="round"/>
<path d="M8.33325 18.8333C5.97623 18.8333 4.79772 18.8333 4.06549 18.101C3.33325 17.3688 3.33325 16.1903 3.33325 13.8333V7.16663C3.33325 4.8096 3.33325 3.63109 4.06549 2.89886C4.79772 2.16663 5.97623 2.16663 8.33325 2.16663H11.6666C14.0236 2.16663 15.2021 2.16663 15.9343 2.89886C16.6666 3.63109 16.6666 4.8096 16.6666 7.16663M11.6666 18.8333C14.0236 18.8333 15.2021 18.8333 15.9343 18.101C16.6666 17.3688 16.6666 16.1903 16.6666 13.8333V10.5" stroke="#3C7098" stroke-width="1.2" stroke-linecap="round"/>
</svg>
