<svg width="25" height="24" viewBox="0 0 25 24" fill="none" xmlns="http://www.w3.org/2000/svg">
<g clip-path="url(#clip0_1_203)">
<path d="M4.02725 14.4912H2.44292C2.17241 14.4912 1.95312 14.7105 1.95312 14.981C1.95312 15.2515 2.17241 15.4708 2.44292 15.4708H4.0272C4.29772 15.4708 4.517 15.2515 4.517 14.981C4.517 14.7105 4.29772 14.4912 4.02725 14.4912Z" fill="#3C7098"/>
<path d="M4.02725 15.7035H2.44292C2.17241 15.7035 1.95312 15.9228 1.95312 16.1933C1.95312 16.4638 2.17241 16.6831 2.44292 16.6831H4.0272C4.29772 16.6831 4.517 16.4638 4.517 16.1933C4.517 15.9228 4.29772 15.7035 4.02725 15.7035Z" fill="#3C7098"/>
<path d="M4.02725 16.9158H2.44292C2.17241 16.9158 1.95312 17.1351 1.95312 17.4056C1.95312 17.6761 2.17241 17.8954 2.44292 17.8954H4.0272C4.29772 17.8954 4.517 17.6761 4.517 17.4056C4.517 17.1351 4.29772 16.9158 4.02725 16.9158Z" fill="#3C7098"/>
<path d="M7.82465 14.4912H7.29009C7.01957 14.4912 6.80029 14.7105 6.80029 14.981C6.80029 15.2515 7.01957 15.4708 7.29009 15.4708H7.82465C8.09517 15.4708 8.31445 15.2515 8.31445 14.981C8.31445 14.7105 8.09517 14.4912 7.82465 14.4912Z" fill="#3C7098"/>
<path d="M7.7879 15.7035H7.29009C7.01957 15.7035 6.80029 15.9228 6.80029 16.1933C6.80029 16.4638 7.01957 16.6831 7.29009 16.6831H7.7879C8.05842 16.6831 8.2777 16.4638 8.2777 16.1933C8.2777 15.9228 8.05842 15.7035 7.7879 15.7035Z" fill="#3C7098"/>
<path d="M0.996219 22.7023H0.989797C0.719281 22.7023 0.5 22.9216 0.5 23.1921C0.5 23.4626 0.719281 23.6819 0.989797 23.6819H0.996219C1.26673 23.6819 1.48602 23.4626 1.48602 23.1921C1.48602 22.9216 1.26673 22.7023 0.996219 22.7023Z" fill="#3C7098"/>
<path d="M24.0104 22.7023H24.004C23.7334 22.7023 23.5142 22.9216 23.5142 23.1921C23.5142 23.4626 23.7334 23.6819 24.004 23.6819H24.0104C24.2809 23.6819 24.5002 23.4626 24.5002 23.1921C24.5002 22.9216 24.2809 22.7023 24.0104 22.7023Z" fill="#3C7098"/>
<path d="M14.2863 9.62476C13.9843 9.62476 13.7388 9.87033 13.7388 10.1723C13.7388 10.4741 13.9843 10.7197 14.2863 10.7197C14.5882 10.7197 14.8338 10.4741 14.8338 10.1723C14.8338 9.87033 14.5882 9.62476 14.2863 9.62476Z" fill="#3C7098"/>
<path d="M10.714 9.62476C10.4121 9.62476 10.1665 9.87033 10.1665 10.1723C10.1665 10.4741 10.4121 10.7197 10.714 10.7197C11.0159 10.7197 11.2615 10.4741 11.2615 10.1723C11.2615 9.87033 11.0159 9.62476 10.714 9.62476Z" fill="#3C7098"/>
<path d="M12.9808 11.9324H12.0235C11.753 11.9324 11.5337 12.1517 11.5337 12.4222C11.5337 12.9561 11.9681 13.3906 12.5021 13.3906C13.0361 13.3906 13.4705 12.9562 13.4706 12.4222C13.4706 12.1517 13.2513 11.9324 12.9808 11.9324Z" fill="#3C7098"/>
<path d="M14.4025 20.5962H14.396C14.1255 20.5962 13.9062 20.8155 13.9062 21.086C13.9062 21.3565 14.1255 21.5758 14.396 21.5758H14.4025C14.673 21.5758 14.8923 21.3565 14.8923 21.086C14.8923 20.8155 14.673 20.5962 14.4025 20.5962Z" fill="#3C7098"/>
<path d="M17.8245 20.5962H15.9869C15.7164 20.5962 15.4971 20.8155 15.4971 21.086C15.4971 21.3565 15.7164 21.5758 15.9869 21.5758H17.8245C18.095 21.5758 18.3143 21.3565 18.3143 21.086C18.3143 20.8155 18.095 20.5962 17.8245 20.5962Z" fill="#3C7098"/>
<path d="M10.5924 20.5962H10.586C10.3155 20.5962 10.0962 20.8155 10.0962 21.086C10.0962 21.3565 10.3155 21.5758 10.586 21.5758H10.5924C10.8629 21.5758 11.0822 21.3565 11.0822 21.086C11.0822 20.8155 10.8629 20.5962 10.5924 20.5962Z" fill="#3C7098"/>
<path d="M9.00117 20.5962H7.16363C6.89311 20.5962 6.67383 20.8155 6.67383 21.086C6.67383 21.3565 6.89311 21.5758 7.16363 21.5758H9.00117C9.27169 21.5758 9.49097 21.3565 9.49097 21.086C9.49097 20.8155 9.27169 20.5962 9.00117 20.5962Z" fill="#3C7098"/>
<path d="M23.2041 3.13201C23.2026 2.39059 22.599 1.78796 21.8572 1.78796C21.1155 1.78796 20.5119 2.39059 20.5103 3.13201L20.3389 20.0524C20.3389 20.0541 20.3389 20.0557 20.3389 20.0574C20.3389 20.8945 21.02 21.5757 21.8572 21.5757C22.6945 21.5757 23.3756 20.8946 23.3756 20.0574C23.3757 20.0557 23.3757 20.0541 23.3756 20.0524L23.2041 3.13201ZM21.4899 3.13984C21.4899 3.13825 21.4899 3.13656 21.4899 3.13487C21.4899 2.93228 21.6547 2.76751 21.8573 2.76751C22.0599 2.76751 22.2246 2.93228 22.2246 3.13487C22.2246 3.13656 22.2246 3.13815 22.2246 3.13984L22.3464 15.1594H21.3681L21.4899 3.13984ZM21.8573 20.5961C21.5609 20.5961 21.3196 20.3556 21.3185 20.0595L21.3582 16.139H22.3563L22.396 20.0595C22.3949 20.3556 22.1536 20.5961 21.8573 20.5961Z" fill="#3C7098"/>
<path d="M22.4217 22.7022H19.7019V19.3904C19.7019 18.4357 19.1257 17.5289 18.3008 17.1851L15.1485 15.8717C15.0365 15.825 14.964 15.7164 14.964 15.5949V14.8322L16.2443 14.0981C16.2532 14.093 16.262 14.0876 16.2706 14.0819C16.9117 13.6586 17.3327 12.9057 17.3967 12.0679C17.3976 12.0555 17.3981 12.043 17.3981 12.0306V11.624C18.0341 11.4171 18.4952 10.8186 18.4952 10.1144C18.4952 9.4102 18.0341 8.81165 17.3981 8.60474V8.36165C17.6775 7.75359 18.8377 4.89234 17.0841 2.65823C16.2738 1.62557 15.3019 1.18682 14.4266 1.43798C13.6862 0.889353 12.8093 0.622024 11.7557 0.622024C10.2556 0.622024 9.04461 1.17196 8.18929 1.99959C7.5335 1.51063 6.73897 1.24448 5.91149 1.24448C5.03558 1.24448 4.2283 1.54185 3.58353 2.0399L2.77982 1.23623C2.77972 1.23613 2.77963 1.23599 2.77949 1.2359C2.7793 1.23581 2.00474 0.461431 2.00474 0.461431C1.81349 0.270181 1.50332 0.270181 1.31207 0.461431C1.12082 0.652681 1.12077 0.962853 1.31207 1.1541L1.75616 1.59824C-0.0154335 3.72112 0.0944883 6.89329 2.08668 8.88548C2.99596 9.79476 4.17711 10.3363 5.42155 10.4484V11.1921H5.27127C5.00075 11.1921 4.78147 11.4114 4.78147 11.6819C4.78147 11.9524 5.00075 12.1717 5.27127 12.1717H6.55138C6.82189 12.1717 7.04118 11.9524 7.04118 11.6819C7.04118 11.4114 6.82189 11.1921 6.55138 11.1921H6.4011V10.4476C6.44685 10.4434 6.4926 10.4386 6.53839 10.4333C6.65343 10.9947 7.06466 11.4494 7.60204 11.6242V12.0308C7.60204 12.0433 7.6025 12.0558 7.60344 12.0681C7.63171 12.4382 7.7286 12.7911 7.88221 13.1061H0.992238C0.721723 13.1061 0.502441 13.3254 0.502441 13.5959V19.9935C0.502441 20.264 0.721723 20.4833 0.992238 20.4833H5.29822V22.7024H2.58322C2.31271 22.7024 2.09343 22.9216 2.09343 23.1922C2.09343 23.4627 2.31271 23.6819 2.58322 23.6819H22.4216C22.6921 23.6819 22.9114 23.4627 22.9114 23.1922C22.9115 22.9216 22.6922 22.7022 22.4217 22.7022ZM11.7556 1.60176C12.9839 1.60176 13.6369 2.03845 14.0212 2.3669C14.1694 2.49356 14.3785 2.52023 14.5538 2.43496C15.0566 2.19027 15.7145 2.49974 16.3135 3.26306C17.3424 4.57387 17.0742 6.24618 16.7779 7.22174C16.5619 6.96384 16.2762 6.66013 15.9076 6.33445C15.6718 6.12595 15.3505 5.96943 15.0103 5.80382C14.6092 5.60849 14.1102 5.3654 14.0157 5.11912C13.9539 4.95834 13.8123 4.84176 13.6426 4.81213C13.4728 4.78256 13.3002 4.8442 13.1876 4.9746C12.5258 5.74129 11.7031 6.09834 10.5988 6.09834C9.24529 6.09834 8.49871 6.8302 8.11068 7.44421C8.09347 7.4714 8.07693 7.49854 8.0608 7.52568C7.88619 6.97879 7.72682 6.23535 7.72682 5.34407C7.72691 3.50451 9.2338 1.60176 11.7556 1.60176ZM14.4802 8.19787C13.5149 8.19787 12.7052 8.87465 12.4993 9.77854C12.2935 8.87465 11.4838 8.19787 10.5185 8.19787C9.89975 8.19787 9.34513 8.47612 8.97215 8.9137L8.61121 8.73117C8.72432 8.28313 9.16199 7.07798 10.5988 7.07798C11.7718 7.07798 12.7303 6.73767 13.5116 6.04059C13.8147 6.31115 14.2134 6.50535 14.5813 6.68451C14.8476 6.81417 15.1228 6.94827 15.2589 7.06846C15.9496 7.67896 16.2974 8.18695 16.4184 8.38363V8.71865L16.0305 8.91829C15.6575 8.47809 15.1011 8.19787 14.4802 8.19787ZM15.5327 10.2298C15.5327 10.8101 15.0606 11.2822 14.4802 11.2822C13.8999 11.2822 13.4278 10.8101 13.4278 10.2298C13.4278 9.64949 13.8999 9.17741 14.4802 9.17741C15.0606 9.17741 15.5327 9.64949 15.5327 10.2298ZM11.5709 10.2298C11.5709 10.8101 11.0988 11.2822 10.5185 11.2822C9.93814 11.2822 9.46602 10.8101 9.46602 10.2298C9.46602 9.64949 9.93814 9.17741 10.5185 9.17741C11.0988 9.17741 11.5709 9.64949 11.5709 10.2298ZM5.91135 2.22426C6.50689 2.22426 7.07952 2.40974 7.55769 2.75137C7.02946 3.53104 6.74727 4.44346 6.74727 5.34402C6.74727 6.25903 6.896 7.03992 7.0746 7.64817C6.71099 7.81152 6.31363 7.89712 5.91135 7.89712C4.34732 7.89712 3.07489 6.6247 3.07489 5.06067C3.07489 3.49663 4.34736 2.22426 5.91135 2.22426ZM6.66285 9.42604C6.41315 9.46888 6.16288 9.48979 5.91421 9.49012C5.91322 9.49012 5.91233 9.48998 5.91135 9.48998C5.91032 9.48998 5.90929 9.49012 5.90825 9.49012C4.74524 9.49017 3.62024 9.03351 2.77935 8.19267C1.16943 6.58274 1.061 4.03209 2.45258 2.29457L2.89072 2.73271C2.39263 3.37752 2.0953 4.18481 2.0953 5.06071C2.0953 7.16488 3.80718 8.87676 5.91135 8.87676C6.42875 8.87676 6.94016 8.77101 7.41219 8.56935C7.42663 8.60165 7.44088 8.63287 7.45466 8.66226C7.10872 8.8146 6.82719 9.08695 6.66285 9.42604ZM7.48457 10.1145C7.48457 9.81351 7.70488 9.56367 7.9926 9.51599L8.53494 9.79026C8.50358 9.93192 8.48652 10.0789 8.48652 10.2298C8.48652 11.3503 9.3981 12.2618 10.5186 12.2618C11.4838 12.2618 12.2936 11.5851 12.4994 10.6811C12.7053 11.585 13.515 12.2618 14.4803 12.2618C15.6008 12.2618 16.5124 11.3503 16.5124 10.2298C16.5124 10.081 16.4959 9.93604 16.4653 9.79626L17.0093 9.51623C17.2962 9.56451 17.5157 9.81402 17.5157 10.1144C17.5157 10.4493 17.2432 10.7218 16.9084 10.7218C16.6378 10.7218 16.4186 10.941 16.4186 11.2116V12.0109C16.3741 12.5288 16.1166 13.0035 15.7426 13.2567L13.1129 14.7645C13.1039 14.7696 13.0952 14.775 13.0866 14.7807C12.7195 15.0232 12.2811 15.0232 11.9138 14.7807C11.905 14.7749 11.8961 14.7694 11.8869 14.7642L9.24955 13.2565C8.87525 13.0031 8.62682 12.5397 8.58177 12.011V11.2116C8.58177 10.941 8.36249 10.7218 8.09197 10.7218C7.757 10.7218 7.48457 10.4494 7.48457 10.1145ZM8.69835 14.0856C8.70744 14.0856 8.71625 14.0847 8.7253 14.0842C8.73294 14.0892 8.74063 14.094 8.7485 14.0985L10.0361 14.8347V15.595C10.0361 15.7164 9.96369 15.8251 9.85161 15.8718L6.69932 17.1853C6.54993 17.2475 6.40888 17.3284 6.27782 17.4245V14.0856H8.69835ZM5.29822 19.3905L5.29818 19.5037H1.48204V19.2731H5.29822V19.3905ZM5.29822 18.2934H1.48204V14.0856H5.29822V18.2934ZM12.0126 22.7022H6.27777V19.9934V19.3904C6.27777 18.8384 6.62099 18.279 7.0761 18.0893L9.67583 17.0062L10.4166 19.0811C10.4766 19.249 10.623 19.371 10.7989 19.3998C10.8253 19.4041 10.8517 19.4062 10.8779 19.4062C11.0266 19.4062 11.169 19.3384 11.2627 19.2194L12.0126 18.2669V22.7022H12.0126ZM10.5636 16.5792C10.8631 16.86 11.2185 17.0711 11.6065 17.1993L11.0413 17.9172L10.5636 16.5792ZM11.0149 15.6188C11.015 15.6108 11.0158 15.603 11.0158 15.595V15.3946L11.3879 15.6074C11.7317 15.8307 12.1159 15.9423 12.5001 15.9423C12.8845 15.9423 13.2688 15.8306 13.6126 15.6072L13.9845 15.394V15.595C13.9845 15.605 13.9854 15.6148 13.9856 15.6247C13.6342 16.0895 13.0911 16.3633 12.5025 16.3633C11.9109 16.3633 11.366 16.0874 11.0149 15.6188ZM14.4415 16.5789L13.9637 17.9172L13.3984 17.1992C13.7863 17.0708 14.1418 16.8599 14.4415 16.5789ZM18.7223 22.7022H12.9922V18.2669L13.7422 19.2194C13.8359 19.3385 13.9783 19.4062 14.127 19.4062C14.1532 19.4062 14.1796 19.4041 14.206 19.3998C14.3819 19.371 14.5283 19.249 14.5883 19.0811L15.3285 17.0079L17.924 18.0893C18.3791 18.279 18.7223 18.8383 18.7223 19.3904V22.7022H18.7223Z" fill="#3C7098"/>
</g>
<defs>
<clipPath id="clip0_1_203">
<rect width="24" height="24" fill="white" transform="translate(0.5)"/>
</clipPath>
</defs>
</svg>
