<svg width="24" height="24" viewBox="0 0 24 24" fill="none" xmlns="http://www.w3.org/2000/svg">
<rect width="24" height="24" rx="12" fill="#C83535"/>
<g clip-path="url(#clip0_1_4172)">
<path d="M16.8783 7.12236C16.8002 7.04425 16.6942 7.00037 16.5837 7.00037C16.4732 7.00037 16.3673 7.04425 16.2891 7.12236L12.0004 11.4111L7.71165 7.12236C7.63351 7.04425 7.52755 7.00037 7.41707 7.00037C7.30658 7.00037 7.20062 7.04425 7.12248 7.12236C7.04437 7.2005 7.00049 7.30646 7.00049 7.41694C7.00049 7.52743 7.04437 7.63339 7.12248 7.71153L11.4112 12.0003L7.12248 16.289C7.04437 16.3672 7.00049 16.4731 7.00049 16.5836C7.00049 16.6941 7.04437 16.8001 7.12248 16.8782C7.20062 16.9563 7.30658 17.0002 7.41707 17.0002C7.52755 17.0002 7.63351 16.9563 7.71165 16.8782L12.0004 12.5894L16.2891 16.8782C16.3673 16.9563 16.4732 17.0002 16.5837 17.0002C16.6942 17.0002 16.8002 16.9563 16.8783 16.8782C16.9564 16.8001 17.0003 16.6941 17.0003 16.5836C17.0003 16.4731 16.9564 16.3672 16.8783 16.289L12.5896 12.0003L16.8783 7.71153C16.9564 7.63339 17.0003 7.52743 17.0003 7.41694C17.0003 7.30646 16.9564 7.2005 16.8783 7.12236Z" fill="white"/>
</g>
<defs>
<clipPath id="clip0_1_4172">
<rect width="10" height="10" fill="white" transform="translate(7 7)"/>
</clipPath>
</defs>
</svg>
